0
SECTION
2
ENTITIES
0
LINE
8
BOARD
10
1.5
20
25.0
30
0
11
36.0
21
25.0
31
0
0
LINE
8
BOARD
10
36.0
20
25.0
30
0
11
36.0
21
0.0
31
0
0
LINE
8
BOARD
10
36.0
20
0.0
30
0
11
0
21
0.0
31
0
0
LINE
8
BOARD
10
0
20
0.0
30
0
11
0
21
23.5
31
0
0
LINE
8
BOARD
10
0
20
23.5
30
0
11
1.5
21
25.0
31
0
0
CIRCLE
8
POGO
10
12.192
20
11.538
30
0
40
0.75
0
CIRCLE
8
PROBE_BORE
10
12.192
20
11.538
30
0
40
0.675
0
TEXT
8
LABEL
10
13.192
20
11.538
30
0
40
1.2
1
BOOT
0
CIRCLE
8
POGO
10
14.732
20
11.538
30
0
40
0.75
0
CIRCLE
8
PROBE_BORE
10
14.732
20
11.538
30
0
40
0.675
0
TEXT
8
LABEL
10
15.732
20
11.538
30
0
40
1.2
1
GND
0
CIRCLE
8
POGO
10
12.192
20
8.998000000000001
30
0
40
0.75
0
CIRCLE
8
PROBE_BORE
10
12.192
20
8.998000000000001
30
0
40
0.675
0
TEXT
8
LABEL
10
13.192
20
8.998000000000001
30
0
40
1.2
1
TX
0
CIRCLE
8
POGO
10
14.732
20
8.998000000000001
30
0
40
0.75
0
CIRCLE
8
PROBE_BORE
10
14.732
20
8.998000000000001
30
0
40
0.675
0
TEXT
8
LABEL
10
15.732
20
8.998000000000001
30
0
40
1.2
1
EN
0
CIRCLE
8
POGO
10
12.192
20
6.457999999999998
30
0
40
0.75
0
CIRCLE
8
PROBE_BORE
10
12.192
20
6.457999999999998
30
0
40
0.675
0
TEXT
8
LABEL
10
13.192
20
6.457999999999998
30
0
40
1.2
1
5V
0
CIRCLE
8
POGO
10
14.732
20
6.457999999999998
30
0
40
0.75
0
CIRCLE
8
PROBE_BORE
10
14.732
20
6.457999999999998
30
0
40
0.675
0
TEXT
8
LABEL
10
15.732
20
6.457999999999998
30
0
40
1.2
1
RX
0
CIRCLE
8
SUPPORT
10
3.0
20
21.0
30
0
40
1.5
0
TEXT
8
LABEL
10
4.7
20
21.0
30
0
40
1.2
1
S1
0
CIRCLE
8
SUPPORT
10
17.0
20
21.0
30
0
40
1.5
0
TEXT
8
LABEL
10
18.7
20
21.0
30
0
40
1.2
1
S2
0
CIRCLE
8
SUPPORT
10
3.0
20
7.0
30
0
40
1.5
0
TEXT
8
LABEL
10
4.7
20
7.0
30
0
40
1.2
1
S3
0
CIRCLE
8
SUPPORT
10
19.0
20
3.0
30
0
40
1.5
0
TEXT
8
LABEL
10
20.7
20
3.0
30
0
40
1.2
1
S4
0
ENDSEC
0
EOF
